<svg xmlns="http://www.w3.org/2000/svg" width="12" height="12" viewBox="0 0 12 12">
    <path fill="#7DA2AB" fill-rule="evenodd" d="M8.775 5.8c-.24-.168-.31-.097-.582-.135A.51.51 0 0 1 8 5.6h1.6a.787.787 0 0 1-.066.2c.028.055.05.121.066.2H8a.509.509 0 0 1 .193-.065c.272-.038.342.033.582-.135zM6.786 9.331c-.039.128-.162.223-.386.269V8c.034.055.054.12.065.193.04.283-.039.347.157.613l.005.006-.04-.151c-.182-.73-.239-1.357-.137-1.461.137.035.38.608.562 1.339.183.73.24 1.357.138 1.461-.091-.023-.228-.284-.364-.669zM3.225 5.8c.24.167.31.096.582.135A.52.52 0 0 1 4 6L3.999 6H2.4a.788.788 0 0 1 .066-.2.788.788 0 0 1-.066-.2H4a.522.522 0 0 1-.193.065c-.272.038-.342-.032-.582.135zm3.402-2.613a1.337 1.337 0 0 1-.005.007c-.196.266-.117.33-.157.613A.505.505 0 0 1 6.4 4V2.4c.224.046.347.141.386.269.136-.385.273-.646.364-.669.102.104.045.731-.138 1.461-.182.73-.425 1.304-.562 1.339-.102-.104-.045-.73.137-1.46l.04-.153zm4.1 2.613a.543.543 0 0 1 .073.2H10a.55.55 0 0 1 .073-.2.55.55 0 0 1-.073-.2h.8l-.006.033a.543.543 0 0 1-.066.167zm-9.854 0a.543.543 0 0 1-.067-.167L.8 5.6h.8a.555.555 0 0 1-.073.2c.036.059.061.127.073.2H.8l.006-.033A.542.542 0 0 1 .873 5.8zm2.645-3.424c-.084.053-.18.018-.248-.106a.733.733 0 0 1 0-.626l.012-.02a.52.52 0 0 0 .016-.009c.128-.063.26.077.294.313a.7.7 0 0 1-.074.448zm-1.59 1.216c-.236-.034-.376-.166-.313-.294a.257.257 0 0 1 .008-.016.731.731 0 0 1 .647-.012c.124.067.159.164.106.248a.704.704 0 0 1-.448.074zm3.69-2.287c-.072-.217.085-.44.35-.5L6 .8v.8c-.18-.029-.333-.14-.383-.295zm.815-.499c.264.058.42.281.35.5-.05.154-.203.265-.383.294V.8a.357.357 0 0 1 .033.006zm1.65 1.57a.703.703 0 0 1-.075-.448c.035-.237.166-.376.294-.313a.11.11 0 0 1 .016.009.73.73 0 0 1 .012.646c-.067.124-.164.16-.248.106zm1.989 1.216a.699.699 0 0 1-.448-.075c-.053-.083-.018-.18.105-.247a.73.73 0 0 1 .626 0l.021.012.009.016c.063.128-.077.26-.313.294zM3.518 9.624a.7.7 0 0 1 .074.448c-.034.236-.166.376-.294.313a.495.495 0 0 0-.016-.008.733.733 0 0 1-.012-.647c.067-.124.164-.16.248-.106zm-1.59-1.616a.704.704 0 0 1 .448.074c.053.084.018.18-.106.248a.731.731 0 0 1-.647-.012.256.256 0 0 1-.008-.016c-.063-.128.077-.26.313-.294zm3.69 2.287c.05-.155.203-.266.382-.295v.8l-.033-.006c-.264-.058-.421-.282-.35-.499zm.815.499a.357.357 0 0 1-.033.006V10c.18.029.332.14.383.295.07.218-.086.44-.35.499zm1.65-1.17c.083-.053.18-.018.247.106a.731.731 0 0 1 0 .626l-.012.02a.116.116 0 0 1-.016.009c-.128.063-.26-.076-.294-.313a.703.703 0 0 1 .074-.448zm1.989-1.616c.236.034.376.166.313.294a.17.17 0 0 0-.009.016l-.021.012a.73.73 0 0 1-.626 0c-.123-.067-.158-.164-.105-.247a.699.699 0 0 1 .448-.075zM4.026.363c.1-.264.29-.112.356-.044.037-.118.16-.421.32-.284.239.206-.02 1.388-.13 1.565-.145-.053-.697-.843-.546-1.237zM1.6 2.08c.014-.171.213-.193.286-.193.001-.073.022-.272.193-.287.256-.02.356.654.31.79-.135.045-.81-.055-.789-.31zM.035 4.702c-.138-.16.166-.283.283-.32-.067-.066-.22-.256.045-.356.394-.15 1.185.4 1.237.546-.176.11-1.36.369-1.565.13zM7.428 1.6c-.11-.178-.369-1.36-.13-1.565.16-.137.283.164.32.283.067-.069.256-.22.356.044.15.394-.4 1.183-.546 1.238zM10.4 4.572c.053-.145.844-.696 1.238-.546.264.1.112.29.045.356.118.037.42.16.282.32-.205.239-1.389-.02-1.565-.13zm-.79-2.183c-.045-.135.055-.809.31-.789.172.014.194.214.193.287.074 0 .273.021.287.193.02.255-.654.355-.79.31zm-5.584 9.248c-.15-.394.401-1.184.546-1.237.11.177.369 1.359.13 1.565-.16.137-.283-.166-.32-.284-.066.068-.256.22-.356-.044zM1.6 9.92c-.02-.255.654-.355.79-.31.045.136-.055.81-.31.79-.172-.015-.193-.214-.194-.287-.073 0-.272-.022-.286-.193zM.035 7.298c.206-.239 1.39.02 1.565.13-.052.145-.843.696-1.237.546-.264-.1-.112-.29-.045-.356-.117-.037-.42-.16-.283-.32zM7.428 10.4c.145.055.697.844.546 1.238-.1.263-.29.113-.355.044-.038.12-.16.42-.32.283-.24-.205.019-1.387.13-1.565zM10.4 7.428c.176-.11 1.36-.369 1.565-.13.137.16-.164.283-.282.32.067.066.219.256-.045.356-.394.15-1.185-.401-1.238-.546zm-.79 2.183c.136-.046.81.054.79.31-.014.17-.213.192-.287.192 0 .073-.02.273-.192.287-.256.02-.356-.654-.31-.79zM4.68 4.243c-.143-.256-.119-.358-.352-.52-.328-.227-.447-.555-.186-.887.34-.144.487.162.467.665-.015.357.062.38.152.677.024.078.038.15.039.222a.535.535 0 0 1-.12-.157zm-.874-.048C3.18 3.57 2.754 2.972 2.804 2.804c.168-.05.767.378 1.391 1.002s1.051 1.223 1.001 1.39c-.168.05-.766-.377-1.39-1.001zm-.305.414c-.503.02-.809-.127-.666-.467.333-.26.661-.141.889.187.161.232.263.21.52.35A.56.56 0 0 1 4.4 4.8a.766.766 0 0 1-.22-.039c-.298-.09-.322-.166-.679-.152zm1.487-1.148C4.805 2.73 4.748 2.104 4.85 2c.137.035.38.609.563 1.34.182.729.239 1.356.137 1.46-.137-.035-.38-.608-.562-1.34zM3.339 5.412C2.609 5.23 2.035 4.987 2 4.85c.103-.102.73-.045 1.461.138.73.182 1.305.425 1.339.562-.103.102-.73.045-1.461-.138zM6 4a.497.497 0 0 1-.065-.194c-.04-.282.04-.347-.158-.612-.275-.374-.252-.697.223-.794V4zm1.672-.277c-.233.161-.21.264-.351.52A.558.558 0 0 1 7.2 4.4a.819.819 0 0 1 .039-.221c.09-.297.167-.32.152-.678-.02-.503.127-.809.467-.666.26.333.142.66-.186.888zm-.868 1.473c-.05-.169.377-.767 1.001-1.39.624-.625 1.222-1.052 1.391-1.002.05.168-.378.766-1.002 1.39-.623.625-1.222 1.052-1.39 1.002zm1.857.216c-.731.183-1.358.24-1.461.137.034-.135.608-.379 1.338-.561.731-.183 1.358-.24 1.462-.138-.035.137-.608.38-1.34.562zm-.162-.803c-.357-.015-.38.062-.678.152A.783.783 0 0 1 7.6 4.8a.532.532 0 0 1 .157-.12c.256-.143.358-.12.52-.352.227-.327.556-.447.888-.186.143.34-.162.487-.666.467zm-3.82 3.148A.534.534 0 0 1 4.8 7.6a.812.812 0 0 1-.039.222c-.09.297-.167.32-.152.677.02.503-.128.81-.467.665-.26-.332-.142-.66.186-.888.233-.16.21-.263.352-.52zm-.873.048c.624-.624 1.222-1.052 1.39-1 .05.166-.377.765-1 1.39-.625.623-1.224 1.051-1.392 1.001-.05-.168.377-.767 1.002-1.39zM3.5 7.391c.357.014.38-.061.678-.152A.766.766 0 0 1 4.4 7.2a.558.558 0 0 1-.156.12c-.257.142-.359.118-.52.351-.228.328-.556.448-.889.187-.143-.34.163-.487.666-.467zM4.988 8.54c.182-.73.425-1.304.562-1.339.102.104.045.731-.137 1.46-.183.731-.426 1.305-.563 1.34-.102-.104-.045-.73.138-1.46zM3.339 6.588c.73-.183 1.358-.24 1.461-.138-.034.137-.609.38-1.339.562-.73.183-1.358.24-1.461.138.035-.137.609-.38 1.339-.562zM6 8v1.6c-.475-.097-.498-.42-.223-.794.197-.265.117-.33.158-.612A.496.496 0 0 1 6 8zm1.672.277c.328.227.446.555.186.888-.34.143-.487-.163-.467-.666.015-.357-.061-.38-.152-.678A.82.82 0 0 1 7.2 7.6c.044.037.084.09.12.157.143.256.12.359.352.52zm-.868-1.473c.168-.05.767.377 1.39 1.002.624.624 1.052 1.222 1.002 1.39-.169.05-.767-.377-1.39-1.001-.625-.624-1.052-1.222-1.002-1.391zm1.857-.216c.731.182 1.304.425 1.339.562-.104.102-.73.045-1.462-.138-.73-.182-1.304-.426-1.338-.561.103-.103.73-.046 1.46.137zm-.162.803c.504-.02.809.128.666.467-.332.26-.66.141-.889-.186-.16-.233-.263-.21-.519-.352A.531.531 0 0 1 7.6 7.2c.07 0 .145.015.221.039.298.09.32.167.678.152z"/>
</svg>
