<svg xmlns="http://www.w3.org/2000/svg" width="143" height="27" viewBox="0 0 143 27">
    <path fill="#DB7761" fill-rule="evenodd" d="M11.81 16.87l-3.99-6.39c-.15-.21-.21-.21-.36-.21-.18.03-1.05.15-1.65.15H4.67c-.24 0-.27.09-.27.27 0 .18.12 5.37.12 6.18.03.81.12 1.59.93 1.71.36.06 1.26.06 1.26.06V19s-1.98-.09-3.06-.09C2.6 18.91.83 19 .83 19v-.36s.84 0 1.23-.18c.42-.15.6-.54.66-1.44.03-1.23.06-2.94.06-4.86 0-3.33-.06-7.17-.18-9.51-.03-.45.03-1.17-.6-1.29-.63-.15-1.08-.15-1.08-.15V.85S2.48.94 3.2.94c.75 0 2.46-.21 4.23-.21 1.77 0 4.59 1.17 4.59 4.38 0 2.46-1.38 3.57-2.25 4.17-.27.18-.33.33-.21.54l4.08 6.51c2.67 4.26 7.11 9.75 12.78 9.75 2.52 0 5.19-1.5 7.02-3.3l.3.42c-2.43 1.83-5.37 3.45-8.58 3.45-5.94 0-10.11-4.89-13.35-9.78zM10.28 5.38c0-2.37-2.07-3.9-3.99-3.9-.54 0-1.05.09-1.47.15-.42.06-.42.75-.42 1.05v6.54c0 .24 0 .33.39.36h.36c.66 0 1.98-.06 2.46-.27.57-.24 2.67-.99 2.67-3.93zM31.85 19s-1.92-.06-2.4-.06c-.45 0-2.4.06-2.4.06v-.39s.42 0 .6-.06a.47.47 0 0 0 .36-.6c-.42-1.2-1.32-3.6-1.8-4.89-.06-.09-.12-.09-.24-.09h-5.04c-.09 0-.15.03-.24.12-.51 1.2-1.5 3.72-1.95 4.89-.12.24-.09.48.15.54.21.09.78.09.78.09V19s-1.56-.06-1.98-.06c-.42 0-2.07.06-2.07.06v-.39s.66 0 .78-.09c.15-.06.63-.06 1.02-.81 1.38-2.94 3.87-8.97 5.16-12 .06-.12.21-.66-.06-.75-.33-.12-.9-.12-.9-.12v-.36c.42.06 1.14.09 1.65.09.48 0 1.05-.03 1.32-.09 1.35 3.72 3.21 8.76 4.89 12.63.45.99.48.96.66 1.11.39.24.72.3 1.71.39V19zm-6.06-7.05l-2.16-5.73c-.63 1.47-1.89 4.35-2.46 5.76-.06.12-.03.12.09.12 1.26.06 3 .06 4.41 0 .15 0 .15 0 .12-.15zm14.76 2.88c0 3.15-2.28 4.35-5.04 4.35-1.47 0-2.76-.42-2.76-.42.03-.57 0-1.8 0-2.49h.36s0 .72.15 1.08c.27.63 1.23.93 2.28.93 2.43 0 3.33-1.59 3.33-2.97 0-1.08-.27-1.44-.87-2.07-.54-.54-3.03-2.52-3.57-3.03-.48-.48-.99-1.23-.99-2.31 0-2.73 2.55-3.6 4.08-3.6 1.35 0 2.61.6 2.61.6-.06.54-.03 1.5 0 2.04h-.51c0-1.32-.87-1.8-2.16-1.8-1.8 0-2.49 1.47-2.49 2.31 0 .45 0 1.08.72 1.77.84.75 3.21 2.64 3.6 3.03.33.36 1.26 1.29 1.26 2.58zM57.68 19s-1.92-.06-2.4-.06c-.45 0-2.4.06-2.4.06v-.39s.42 0 .6-.06a.47.47 0 0 0 .36-.6c-.42-1.2-1.32-3.6-1.8-4.89-.06-.09-.12-.09-.24-.09h-5.04c-.09 0-.15.03-.24.12-.51 1.2-1.5 3.72-1.95 4.89-.12.24-.09.48.15.54.21.09.78.09.78.09V19s-1.56-.06-1.98-.06c-.42 0-2.07.06-2.07.06v-.39s.66 0 .78-.09c.15-.06.63-.06 1.02-.81 1.38-2.94 3.87-8.97 5.16-12 .06-.12.21-.66-.06-.75-.33-.12-.9-.12-.9-.12v-.36c.42.06 1.14.09 1.65.09.48 0 1.05-.03 1.32-.09 1.35 3.72 3.21 8.76 4.89 12.63.45.99.48.96.66 1.11.39.24.72.3 1.71.39V19zm-6.06-7.05l-2.16-5.73c-.63 1.47-1.89 4.35-2.46 5.76-.06.12-.03.12.09.12 1.26.06 3 .06 4.41 0 .15 0 .15 0 .12-.15zm41.4 14.04c2.7 0 5.61-1.14 7.53-3l.3.39c-2.61 1.98-5.76 3.27-9.24 3.27-5.91 0-10.32-4.56-14.04-8.64l-7.56-8.25c0 2.04.06 6.6.18 7.26.09.75.15 1.35.93 1.47.75.15 1.14.15 1.14.15V19s-1.92-.09-3.09-.09c-1.14 0-2.82.09-2.82.09v-.36s.63-.06 1.02-.18c.39-.06.69-.18.78-1.44.12-1.29.15-6.39.15-7.56 0-1.14-.03-6.69-.06-6.93-.03-.27.03-1.08-.6-1.23-.51-.09-.99-.09-.99-.09V.85s1.59.09 2.49.09c.9 0 2.49-.09 2.49-.09v.39s-.42.03-.66.06c-.3.06-.96.3-.96 1.17v7.17c1.77-1.89 5.1-5.76 6.87-7.8.09-.12.09-.21.09-.3s-.06-.21-.21-.24c-.27-.03-.81-.06-.81-.06V.85s1.65.09 2.31.09c.69 0 2.34-.09 2.34-.09v.42s-.99 0-1.56.33c-.57.3-.93.69-1.14.93-1.53 1.68-4.56 5.04-6 6.69l7.5 8.13c3.78 4.05 8.07 8.64 13.62 8.64zm4.83-14.22c0 4.8-3.93 7.5-7.53 7.5-3.96 0-7.53-2.4-7.53-7.53 0-5.01 4.17-7.47 7.56-7.47 4.56 0 7.5 3.06 7.5 7.5zm-1.5 0c0-3.69-2.73-6.72-6-6.72-3.54 0-6.06 2.49-6.06 6.66 0 3.78 2.76 6.69 6.03 6.69 3 0 6.03-2.04 6.03-6.63zM109.01 7h-.36s.06-1.02-.24-1.32c-.27-.27-1.35-.36-2.55-.36-1.2 0-2.19.06-2.43.06-.24.03-.39.09-.39.42 0 .36-.03 4.71-.03 4.92 0 .21.06.3.33.33h4.05c.24-.03.39-.15.42-.27.06-.06.12-.51.12-.51h.3c-.03.69-.03 2.04 0 2.64l-.3-.03s0-.57-.24-.78c-.24-.18-1.53-.18-2.34-.18-.78 0-1.92 0-2.07.03-.12.03-.27.03-.27.27 0 .24.03 3.75.09 4.59.06.81-.03 1.44.87 1.71.42.12.84.12.84.12V19s-2.01-.06-2.52-.06c-.45 0-2.37.06-2.37.06v-.39s.87.06 1.2-.3c.3-.33.3-1.23.3-1.47.03-.27.09-4.53.09-5.43 0-.93-.03-5.22-.06-5.58 0-.36-.06-.81-.45-.93-.39-.06-.81-.06-.81-.06v-.33s3.36.06 4.8.06c1.38 0 4.02-.06 4.02-.06-.03.75-.03 1.92 0 2.49zm10.68 0h-.36s.06-1.02-.24-1.32c-.27-.27-1.35-.36-2.55-.36-1.2 0-2.19.06-2.43.06-.24.03-.39.09-.39.42 0 .36-.03 4.71-.03 4.92 0 .21.06.3.33.33h4.05c.24-.03.39-.15.42-.27.06-.06.12-.51.12-.51h.3c-.03.69-.03 2.04 0 2.64l-.3-.03s0-.57-.24-.78c-.24-.18-1.53-.18-2.34-.18-.78 0-1.92 0-2.07.03-.12.03-.27.03-.27.27 0 .24.03 3.75.09 4.59.06.81-.03 1.44.87 1.71.42.12.84.12.84.12V19s-2.01-.06-2.52-.06c-.45 0-2.37.06-2.37.06v-.39s.87.06 1.2-.3c.3-.33.3-1.23.3-1.47.03-.27.09-4.53.09-5.43 0-.93-.03-5.22-.06-5.58 0-.36-.06-.81-.45-.93-.39-.06-.81-.06-.81-.06v-.33s3.36.06 4.8.06c1.38 0 4.02-.06 4.02-.06-.03.75-.03 1.92 0 2.49zm11.28 9.21c-.12.75-.27 2.19-.27 2.79 0 0-2.79-.06-4.14-.06-1.38 0-5.28.06-5.28.06v-.36s.93.09 1.23-.36c.3-.45.24-1.26.24-1.47 0-.12.06-4.29.06-5.46s-.09-5.34-.12-5.61c-.03-.24.06-.69-.57-.81l-.63-.09v-.36s2.34.06 3.54.06c1.26 0 5.19-.06 5.19-.06V7h-.3s0-1.05-.33-1.41c-.3-.3-2.07-.3-2.37-.3-.3 0-2.52.12-2.64.15-.09.03-.3.06-.3.33v4.68c0 .24.06.36.27.36.27 0 1.86.03 2.22.03.3 0 1.74-.03 1.89-.09.15-.03.36-.18.45-.24 0-.12.06-.51.06-.51h.36c-.03.69-.03 1.89 0 2.79h-.36s.06-.72-.21-.93c-.3-.18-1.62-.21-2.13-.21-.51 0-2.13.06-2.28.09-.15 0-.27.03-.27.27 0 .3.06 4.23.12 5.07.06.51.18.75.87.81.66.09 1.47.09 2.07.09.6 0 1.62-.03 1.98-.09.39-.03.87-.24 1.05-.63.15-.42.18-1.05.18-1.05h.42zm11.43 0c-.12.75-.27 2.19-.27 2.79 0 0-2.79-.06-4.14-.06-1.38 0-5.28.06-5.28.06v-.36s.93.09 1.23-.36c.3-.45.24-1.26.24-1.47 0-.12.06-4.29.06-5.46s-.09-5.34-.12-5.61c-.03-.24.06-.69-.57-.81l-.63-.09v-.36s2.34.06 3.54.06c1.26 0 5.19-.06 5.19-.06V7h-.3s0-1.05-.33-1.41c-.3-.3-2.07-.3-2.37-.3-.3 0-2.52.12-2.64.15-.09.03-.3.06-.3.33v4.68c0 .24.06.36.27.36.27 0 1.86.03 2.22.03.3 0 1.74-.03 1.89-.09.15-.03.36-.18.45-.24 0-.12.06-.51.06-.51h.36c-.03.69-.03 1.89 0 2.79h-.36s.06-.72-.21-.93c-.3-.18-1.62-.21-2.13-.21-.51 0-2.13.06-2.28.09-.15 0-.27.03-.27.27 0 .3.06 4.23.12 5.07.06.51.18.75.87.81.66.09 1.47.09 2.07.09.6 0 1.62-.03 1.98-.09.39-.03.87-.24 1.05-.63.15-.42.18-1.05.18-1.05h.42z"/>
</svg>
