<?xml version="1.0" encoding="utf-8"?>
<!-- Generator: Adobe Illustrator 23.0.0, SVG Export Plug-In . SVG Version: 6.00 Build 0)  -->
<svg version="1.1" id="Layer_1" xmlns="http://www.w3.org/2000/svg" xmlns:xlink="http://www.w3.org/1999/xlink" x="0px" y="0px"
	 width="999.6px" height="388.8px" viewBox="0 0 999.6 388.8" enable-background="new 0 0 999.6 388.8" xml:space="preserve">
<title>Asset 4</title>
<g>
	<g id="Layer_1-2">
		<path d="M193.9,0c108,0,194.4,86.9,194.4,194.9s-86.4,193.9-194.4,193.9S0,302.9,0,194.9S85.9,0,193.9,0z M193.9,334.8
			c77.2,0,140.4-62.6,140.4-139.9c0-76.7-63.2-140.9-140.4-140.9C117.2,54,54,118.3,54,194.9C54,272.2,117.2,334.8,193.9,334.8z"/>
		<path d="M393.7,363.4l178.2-304v-2.2H419.6c-5.6-0.2-10.1-4.7-10.3-10.2V15.7c0.2-5.6,4.7-10.1,10.3-10.3h221.9
			c5.6,0.2,10.1,4.7,10.3,10.3v7L473,331.6v0.5h157.7c5.7,0,10.3,4.6,10.3,10.2c0,0,0,0,0,0v30.8c0,5.7-4.6,10.3-10.2,10.3
			c0,0,0,0,0,0H403.9c-5.6-0.2-10.1-4.7-10.3-10.3V363.4z"/>
		<path d="M813.8,201.4L687.4,21.1c-4.3-7,0-15.7,8.6-15.7h40c4.3,0,7,2.7,8.6,4.9L842.4,148l97.7-137.7c1.6-2.2,4.9-4.9,8.7-4.9
			h40.5c8.6,0,13,8.6,8.6,15.7l-128,179.8v172.2c-0.2,5.6-4.7,10.1-10.3,10.3H824c-5.7,0-10.3-4.6-10.3-10.2c0,0,0,0,0,0
			L813.8,201.4z"/>
	</g>
</g>
</svg>
