<svg xmlns="http://www.w3.org/2000/svg" width="30" height="30" viewBox="0 0 30 30">
    <path fill="#FFF" fill-rule="nonzero" d="M25.917.201H4.312A3.644 3.644 0 0 0 .668 3.845v21.866a3.643 3.643 0 0 0 3.644 3.644h21.605a3.643 3.643 0 0 0 3.644-3.644V3.845A3.644 3.644 0 0 0 25.917.201zm-4.858 14.578a5.952 5.952 0 0 1-5.944 5.945 5.952 5.952 0 0 1-5.945-5.945c0-.986.245-1.913.671-2.733a5.948 5.948 0 0 1 5.274-3.212 5.945 5.945 0 0 1 5.273 3.212c.426.819.671 1.747.671 2.733zm5.248 9.829c0 .825-.669 1.494-1.494 1.494H5.544a1.494 1.494 0 0 1-1.494-1.494V12.045h2.465a8.982 8.982 0 0 0-.426 2.733c0 4.976 4.048 9.024 9.024 9.024 4.976 0 9.024-4.048 9.024-9.024 0-.953-.151-1.87-.426-2.733h2.595v12.563h.001zm0-17.267c0 .825-.669 1.494-1.494 1.494H22.55a1.494 1.494 0 0 1-1.494-1.494V4.872a1.49 1.49 0 0 1 1.011-1.407h2.745c.825 0 1.494.669 1.494 1.494v2.382h.001z"/>
</svg>
